inDegrees=no
num_controls=7
num_derivatives=13
num_iterations=101
num_multipliers=7
num_parameters=0
num_slacks=7
num_states=26
objective=0.448387
objective_accelerations=0.049761
objective_balance=0.007830
objective_effort=0.037511
objective_height=0.348343
objective_ligament=0.004941
solver_duration=1491.286793
status=Solve_Succeeded
success=true
DataType=double
version=3
OpenSimVersion=4.5
endheader
time	/jointset/ground_pelvis/pelvis_tilt/value	/jointset/ground_pelvis/pelvis_tx/value	/jointset/ground_pelvis/pelvis_ty/value	/jointset/hip_l/hip_flexion_l/value	/jointset/hip_l/hip_adduction_l/value	/jointset/hip_l/hip_rotation_l/value	/jointset/back/lumbar_extension/value	/jointset/patellofemoral_l/patellar_flexion_l/value	/jointset/knee_l/knee_flexion_l/value	/jointset/knee_l/knee_adduction_l/value	/jointset/knee_l/knee_rotation_l/value	/jointset/ankle_l/ankle_angle_l/value	/jointset/subtalar_l/subtalar_angle_l/value	/jointset/ground_pelvis/pelvis_tilt/speed	/jointset/ground_pelvis/pelvis_tx/speed	/jointset/ground_pelvis/pelvis_ty/speed	/jointset/hip_l/hip_flexion_l/speed	/jointset/hip_l/hip_adduction_l/speed	/jointset/hip_l/hip_rotation_l/speed	/jointset/back/lumbar_extension/speed	/jointset/patellofemoral_l/patellar_flexion_l/speed	/jointset/knee_l/knee_flexion_l/speed	/jointset/knee_l/knee_adduction_l/speed	/jointset/knee_l/knee_rotation_l/speed	/jointset/ankle_l/ankle_angle_l/speed	/jointset/subtalar_l/subtalar_angle_l/speed	/forceset/tau_hip_flexion_l	/forceset/tau_hip_adduction_l	/forceset/tau_hip_rotation_l	/forceset/tau_knee_flexion_l	/forceset/tau_ankle_angle_l	/forceset/tau_subtalar_angle_l	/forceset/tau_lumbar_extension	lambda_cid13_p0	lambda_cid13_p1	lambda_cid13_p2	lambda_cid13_p3	lambda_cid13_p4	lambda_cid13_p5	lambda_cid14_p0	/jointset/ground_pelvis/pelvis_tilt/accel	/jointset/ground_pelvis/pelvis_tx/accel	/jointset/ground_pelvis/pelvis_ty/accel	/jointset/hip_l/hip_flexion_l/accel	/jointset/hip_l/hip_adduction_l/accel	/jointset/hip_l/hip_rotation_l/accel	/jointset/back/lumbar_extension/accel	/jointset/patellofemoral_l/patellar_flexion_l/accel	/jointset/knee_l/knee_flexion_l/accel	/jointset/knee_l/knee_adduction_l/accel	/jointset/knee_l/knee_rotation_l/accel	/jointset/ankle_l/ankle_angle_l/accel	/jointset/subtalar_l/subtalar_angle_l/accel	gamma_cid13_p0	gamma_cid13_p1	gamma_cid13_p2	gamma_cid13_p3	gamma_cid13_p4	gamma_cid13_p5	gamma_cid14_p0
1	-0.672643262878855	-0.1385288531229021	0.5914787495579321	1.981058316750484	-0.2967797599549016	0.1328898773743033	-0.4363059535244869	1.191776470304865	1.191776470304866	-0.1740892473657195	0.1743915662237717	0.07724637617377848	-0.03328294824805544	-0.01700044749920476	0.0005726268247524804	-0.004980367358341582	0.02615642147885419	0.001099486684670419	0.003490635548193345	-0.0005223788163310505	0.0116965572477943	0.01169655724779431	0.001025207402358414	0.0003003354213463396	0.003334223437454187	0.001730703903344321	-0.4522767179059768	0.009647663238994162	-0.01795971902568719	-0.2452276655703241	0.1505439651566825	0.02116332073418022	0.3609288408308226	1.430235320678359	-9.234693099588483	0.8334452903866439	7.709097589000397	-731.3711244128456	-36.71643176216256	-0.9589219214819245	1.954565800747485	0.2833816276728968	1.727805716394962	-6.455086211237496	-0.3551518385416741	-1.776131516045185	0.0002441822542217295	-4.653129393245615	-4.653129393245618	0.02967477534684823	0.02048478505001822	-0.4271923002312061	-0.4118007789126158	2.216030950814016e-10	9.537964356800255e-09	1.04720002958796e-09	3.708884224270569e-09	1.443894530417703e-09	-1.005097162035195e-09	1.740208209369284e-09
1.01	-0.6727165227944301	-0.1385089937026382	0.5915152015396677	1.98099829363841	-0.2967856736960072	0.1328361856442378	-0.4363099244227362	1.191660930952125	1.191660930952124	-0.1740763917822427	0.1743944509321765	0.07725858151860142	-0.03328527614721626	0.00232385160823839	0.003402995449060582	0.01226647179476627	-0.0381348734330903	-0.002281903551896405	-0.01412022297395371	-0.0002291409931375381	-0.03480689326986076	-0.03480689326986217	0.001449856484965363	0.0002272530871616399	-0.0008910358628288146	-0.002195664671642812	-0.4522627208747997	0.009673984089462894	-0.01795199099090319	-0.245232065744392	0.1507504378663768	0.02114068907285319	0.360977396077225	1.502316165617671	-9.238973957001182	0.8358284632705389	7.555896215925443	-731.3394868124087	-36.71559002471859	-0.961246487865689	1.917670015744133	0.2834274120749433	1.72247790696687	-6.412225769149935	-0.3295911092402409	-1.73725456769841	0.05026255841156678	-4.649321162419371	-4.649321162419579	0.03445272321178575	-0.02862016779480396	-0.4198733466659463	-0.3829699478069474	-5.124745174847411e-09	6.885128302557498e-09	5.694783080047543e-08	1.092269563151711e-08	-6.525477424156242e-09	3.828491892555779e-08	-7.604112040876613e-09
1.02	-0.6725972781089304	-0.1384607180096781	0.5917239928913742	1.98029614264962	-0.2968253930380836	0.1326096470194713	-0.4363096831475412	1.191080283437929	1.191080283437928	-0.1740621711582409	0.1743951217322112	0.07722859815007369	-0.03332685074232999	0.02150047271573787	0.006255881363979657	0.02948750663580195	-0.1022691538641155	-0.005661633509505395	-0.03107874339206016	0.0003200558725165799	-0.08132507504327285	-0.08132507504327557	0.001298215507338992	-0.0001424462527037478	-0.00510351923267581	-0.00611863528723738	-0.4522487238436236	0.009700304939931613	-0.01794426295611913	-0.2452364659184598	0.1509569105760691	0.02111805741152615	0.3610259513236275	1.568808559565437	-9.242395805664573	0.8382113149602314	7.418377942748245	-731.3848772084555	-36.68353082265855	-0.9729788787180929	1.925030200758751	0.2878850857950915	1.72264485398053	-6.423683315053641	-0.3548197827501076	-1.645663895237212	0.05143599074634314	-4.656075644397025	-4.656075644397004	-0.08558323669981505	-0.03883861608582845	-0.4246371141440055	-0.4111211870341028	-6.999865776475402e-09	-1.041681642086194e-08	6.004172807699751e-08	6.256834046093308e-09	-1.165007910654081e-08	5.191418459059706e-08	-1.226095823127934e-08
1.03	-0.6722858832578352	-0.1383837283528438	0.5921049227413705	1.978952423601711	-0.2968989974399794	0.1322153679651368	-0.4363041720722743	1.19003466399131	1.190034663991312	-0.1740512555659612	0.1743915548596427	0.07715660570343025	-0.03340772793976322	0.04086775820794757	0.009153182896727773	0.04670009003331438	-0.1665513307203836	-0.009068588422415235	-0.04780786429172453	0.0006728013695245266	-0.1277727930189086	-0.1277727930189062	0.0008961977807579919	-0.0005270755236258076	-0.009287216571729224	-0.0100651607884929	-0.4517653943871061	0.009788368706305318	-0.0179847764718059	-0.2452020400420398	0.1511587694068693	0.02117098368638222	0.3606833209679117	1.657058272003511	-9.28527603919775	0.8501218324359975	7.284785221998163	-731.0708670397044	-36.72324405711251	-0.9943384807333961	1.955965240249431	0.2923228860269761	1.72080570309979	-6.4419880811275	-0.3350399354045902	-1.691170127795611	0.01079015747652077	-4.635213282980611	-4.635213282980159	-0.01582472707990951	-0.03171324221524247	-0.4140724739502413	-0.3876746145465064	-8.839565687610508e-09	-2.786824184498734e-08	6.259678113418904e-08	1.469751307683007e-09	-1.67456525208418e-08	6.528160586356932e-08	-1.686997305372445e-08
